<mxfile host="app.diagrams.net" modified="2024-05-03T07:00:13.595Z" agent="Mozilla/5.0 (Windows NT 10.0; Win64; x64) AppleWebKit/537.36 (KHTML, like Gecko) Chrome/124.0.0.0 Safari/537.36" version="24.2.1" etag="iDS6UhPR67EQI0FsNCnF" type="github">
  <diagram name="Page-1" id="CQZd7gSvVK9HG8uiHv_m">
    <mxGraphModel>
      <root>
        <mxCell id="0" />
        <mxCell id="1" parent="0" />
      </root>
    </mxGraphModel>
  </diagram>
</mxfile>
